<svg width="840" height="209" viewBox="0 0 840 209" fill="none" xmlns="http://www.w3.org/2000/svg">
<g clip-path="url(#clip0_421_1092)">
<rect width="840" height="209" rx="16" fill="white"/>
<g filter="url(#filter0_d_421_1092)">
<path d="M444.735 236.926C497.879 252.724 522.668 188.457 609.856 249.284C619.171 255.783 633.644 254.232 641.814 246.452C665.783 223.631 710.508 191.75 715.173 236.926C717.684 261.232 746.846 307.734 772.17 284.28C757.761 344.968 836.046 415.197 833.08 304.978C847.253 275.772 874.61 179.38 872 161.5C867.417 130.082 754.422 139.623 725.105 155.093C680.795 178.474 649.076 158.843 623.5 145.593C586.832 126.596 349.398 159.939 309.517 176C265.972 193.535 168 158.749 142.401 150.502C84.5351 131.86 37.8652 110.522 -9.49958 145.593C-29.8057 160.629 -4.5373 424.986 57.7616 364.665C87.0975 375.087 119.294 233.273 146.032 217.929C172.771 202.586 239.234 285.106 309.517 223C340.464 195.653 388.204 220.121 444.735 236.926Z" fill="white"/>
</g>
</g>
<defs>
<filter id="filter0_d_421_1092" x="-76.3828" y="70.793" width="1008.56" height="366.806" filterUnits="userSpaceOnUse" color-interpolation-filters="sRGB">
<feFlood flood-opacity="0" result="BackgroundImageFix"/>
<feColorMatrix in="SourceAlpha" type="matrix" values="0 0 0 0 0 0 0 0 0 0 0 0 0 0 0 0 0 0 127 0" result="hardAlpha"/>
<feOffset dy="4"/>
<feGaussianBlur stdDeviation="30"/>
<feComposite in2="hardAlpha" operator="out"/>
<feColorMatrix type="matrix" values="0 0 0 0 0.145098 0 0 0 0 0.670588 0 0 0 0 0.886275 0 0 0 0.2 0"/>
<feBlend mode="normal" in2="BackgroundImageFix" result="effect1_dropShadow_421_1092"/>
<feBlend mode="normal" in="SourceGraphic" in2="effect1_dropShadow_421_1092" result="shape"/>
</filter>
<clipPath id="clip0_421_1092">
<rect width="840" height="209" rx="16" fill="white"/>
</clipPath>
</defs>
</svg>
